<svg xmlns="http://www.w3.org/2000/svg" version="1.1" xmlns:xlink="http://www.w3.org/1999/xlink" xmlns:svgjs="http://svgjs.dev/svgjs" width="1000" height="1000" viewBox="0 0 1000 1000"><rect width="1000" height="1000" fill="#ffffff"></rect><g transform="matrix(0.7,0,0,0.7,149.90044910179654,149.90044910179637)"><svg viewBox="0 0 334 334" data-background-color="#ffffff" preserveAspectRatio="xMidYMid meet" height="1000" width="1000" xmlns="http://www.w3.org/2000/svg" xmlns:xlink="http://www.w3.org/1999/xlink"><g id="tight-bounds" transform="matrix(1,0,0,1,0.04749999999998522,0.04750000000001364)"><svg viewBox="0 0 333.90454557049503 333.90454557049503" height="333.90454557049503" width="333.90454557049503"><g><svg></svg></g><g><svg viewBox="0 0 333.90454557049503 333.90454557049503" height="333.90454557049503" width="333.90454557049503"><g><path d="M0 166.952c0-92.205 74.747-166.952 166.952-166.952 92.205 0 166.952 74.747 166.953 166.952 0 92.205-74.747 166.952-166.953 166.953-92.205 0-166.952-74.747-166.952-166.953zM166.952 324.783c87.168 0 157.831-70.663 157.831-157.831 0-87.168-70.663-157.831-157.831-157.831-87.168 0-157.831 70.663-157.831 157.831 0 87.168 70.663 157.831 157.831 157.831z" data-fill-palette-color="tertiary" fill="#ed2647" stroke="transparent"></path><ellipse rx="160.27418187383762" ry="160.27418187383762" cx="166.95227278524752" cy="166.95227278524752" fill="#ed2647" stroke="transparent" stroke-width="0" fill-opacity="1" data-fill-palette-color="tertiary"></ellipse></g><g transform="matrix(1,0,0,1,115.74233548949229,71.17305217166896)"><svg viewBox="0 0 102.41987459151045 191.55844122715712" height="191.55844122715712" width="102.41987459151045"><g><svg viewBox="0 0 102.41987459151045 191.55844122715712" height="191.55844122715712" width="102.41987459151045"><g><svg viewBox="0 0 193.97177591978271 362.79024149807844" height="191.55844122715712" width="102.41987459151045"><g transform="matrix(1,0,0,1,0,171.23180027092135)"><svg viewBox="0 0 193.97177591978271 191.55844122715712" height="191.55844122715712" width="193.97177591978271"><g><svg viewBox="0 0 193.97177591978271 191.55844122715712" height="191.55844122715712" width="193.97177591978271" id="textblock"><g><svg viewBox="0 0 193.97177591978271 191.55844122715712" height="191.55844122715712" width="193.97177591978271"><g transform="matrix(1,0,0,1,0,0)"><svg width="193.97177591978271" viewBox="3.5999999046325684 -31.700000762939453 32.150001525878906 31.75" height="191.55844122715712" data-palette-color="#ffffff"><path d="M32.45-31.6Q33.15-31.6 34.18-30.68 35.2-29.75 35.2-29.1L35.2-29.1Q35.2-26.05 35-20.75L35-20.75Q34.95-19.45 34.9-17.63 34.85-15.8 34.85-13.4L34.85-13.4Q34.85-5.8 35.75-2.2L35.75-2.2Q35.7-1 34.8-0.48 33.9 0.05 33 0.05L33 0.05Q31 0.05 30.38-1.35 29.75-2.75 29.75-5.35L29.75-5.35Q29.75-15 29.95-23.1L29.95-23.1Q24.2-16.7 21-12.35L21-12.35Q21-12.35 20.1-11.75L20.1-11.75Q19.25-11 18.7-11L18.7-11Q17.4-11 16.55-11.65 15.7-12.3 14.9-13.55L14.9-13.55 12.5-16.95Q10-20.45 8.85-22.25L8.85-22.25Q8.85-17.65 9.3-9.75L9.3-9.75Q9.65-5.2 9.65-2.9L9.65-2.9Q9.65-1.7 9.05-0.88 8.45-0.05 7.15-0.05L7.15-0.05Q5.85-0.05 5.03-0.55 4.2-1.05 4.15-2.05L4.15-2.05Q4.2-2.9 4.2-4.85L4.2-4.85Q4.2-8.75 3.95-14.35L3.95-14.35 3.85-17.05 3.75-20.55Q3.7-22.1 3.65-24.18 3.6-26.25 3.6-28.7L3.6-28.7Q3.6-31.7 6.85-31.7L6.85-31.7Q7.85-31.7 8.88-31.2 9.9-30.7 10.4-29.75L10.4-29.75Q10.8-28 13.35-23.95 15.9-19.9 18.35-16.35L18.35-16.35Q20.55-19.15 21.95-20.55L21.95-20.55Q24.35-23 25.93-25.1 27.5-27.2 29.35-30.15L29.35-30.15Q29.8-30.75 30.65-31.18 31.5-31.6 32.45-31.6L32.45-31.6Z" opacity="1" transform="matrix(1,0,0,1,0,0)" fill="#ffffff" class="undefined-text-0" data-fill-palette-color="quaternary" id="text-0"></path></svg></g></svg></g></svg></g></svg></g><g transform="matrix(1,0,0,1,37.048609200678506,0)"><svg viewBox="0 0 119.8745575184257 126.00944969977901" height="126.00944969977901" width="119.8745575184257"><g><svg xmlns="http://www.w3.org/2000/svg" xmlns:xlink="http://www.w3.org/1999/xlink" version="1.1" x="0" y="0" viewBox="8.582500457763672 6.464250087738037 82.83424377441406 87.07350158691406" enable-background="new 0 0 100 100" xml:space="preserve" height="126.00944969977901" width="119.8745575184257" class="icon-icon-0" data-fill-palette-color="quaternary" id="icon-0"><g fill="#ffffff" data-fill-palette-color="quaternary"><path d="M42.591 8.658c-2.923-2.924-7.682-2.926-10.606 0-2.923 2.922-2.924 7.684 0 10.605l12.731 12.729c-1.556 0.222-3.055 0.927-4.245 2.118-2.924 2.923-2.925 7.683 0 10.606l0.004 0.004c-1.557 0.221-3.057 0.926-4.246 2.114-1.193 1.193-1.899 2.69-2.119 4.243L21.384 38.354c-2.926-2.925-7.684-2.927-10.608-0.002-2.926 2.926-2.924 7.684 0.002 10.609l37.121 37.121c9.941 9.941 26.121 9.941 36.062 0 9.941-9.943 9.941-26.121 0-36.062L42.591 8.658zM34.106 10.779c1.757-1.758 4.609-1.755 6.364 0l27.95 27.941c-3.449-0.363-7.012 0.594-9.859 2.873L34.106 17.143C32.351 15.389 32.351 12.533 34.106 10.779zM42.592 42.596c-1.755-1.755-1.755-4.609 0-6.364s4.609-1.755 6.364 0l7.422 7.427-6.362 6.361L42.592 42.596zM38.353 55.322c-1.756-1.756-1.759-4.609-0.002-6.365 1.752-1.754 4.609-1.754 6.364 0l3.18 3.184-6.361 6.361L38.353 55.322zM58.445 62.686l3.238 3.238c1.756 1.758 1.752 4.611 0 6.365-1.758 1.756-4.607 1.756-6.365 0l-6.73-6.73C52.035 65.922 55.6 64.965 58.445 62.686zM81.84 83.959c-8.771 8.771-23.047 8.77-31.818-0.002L12.899 46.84c-1.756-1.756-1.756-4.611-0.001-6.365 1.755-1.755 4.609-1.755 6.365 0l21.153 21.154c0.019 0.02 0.038 0.037 0.057 0.057L53.197 74.41c2.926 2.924 7.682 2.924 10.607 0 1.416-1.418 2.195-3.299 2.197-5.301-0.002-0.359-0.027-0.715-0.076-1.064 2.258 0.32 4.633-0.389 6.361-2.119 2.924-2.922 2.926-7.682 0-10.605-2.92-2.922-7.682-2.922-10.604 0.002l-4.24 4.24c-3.715 3.715-9.627 4.055-13.715 0.99l15.836-15.835c4.096-4.096 10.756-4.098 14.848-0.004l7.428 7.427C90.611 60.91 90.613 75.186 81.84 83.959zM63.805 63.807l-3.18-3.184 3.18-3.18c1.754-1.754 4.609-1.754 6.361-0.002 1.758 1.756 1.756 4.609 0 6.363C68.412 65.561 65.559 65.562 63.805 63.807z" fill="#ffffff" data-fill-palette-color="quaternary"></path></g></svg></g></svg></g><g></g></svg></g></svg></g></svg></g></svg></g><defs></defs></svg><rect width="333.90454557049503" height="333.90454557049503" fill="none" stroke="none" visibility="hidden"></rect></g></svg></g></svg>